<svg width="1284" height="2778" viewBox="0 0 1284 2778" fill="none" xmlns="http://www.w3.org/2000/svg">
  <defs>
    <radialGradient id="splashBg" cx="50%" cy="36%" r="74%">
      <stop offset="0%" stop-color="#11233A"/>
      <stop offset="58%" stop-color="#07111F"/>
      <stop offset="100%" stop-color="#020617"/>
    </radialGradient>
    <linearGradient id="markGradient" x1="276" y1="760" x2="748" y2="264" gradientUnits="userSpaceOnUse">
      <stop offset="0%" stop-color="#38BDF8"/>
      <stop offset="48%" stop-color="#0EA5E9"/>
      <stop offset="100%" stop-color="#2DD4BF"/>
    </linearGradient>
    <linearGradient id="edgeGradient" x1="214" y1="214" x2="810" y2="810" gradientUnits="userSpaceOnUse">
      <stop offset="0%" stop-color="#1E3A5F"/>
      <stop offset="100%" stop-color="#0F766E"/>
    </linearGradient>
    <filter id="softShadow" x="148" y="156" width="728" height="760" filterUnits="userSpaceOnUse" color-interpolation-filters="sRGB">
      <feDropShadow dx="0" dy="24" stdDeviation="28" flood-color="#000000" flood-opacity="0.38"/>
      <feDropShadow dx="0" dy="0" stdDeviation="18" flood-color="#0EA5E9" flood-opacity="0.22"/>
    </filter>
  </defs>

  <rect width="1284" height="2778" fill="url(#splashBg)"/>
  <circle cx="642" cy="1270" r="458" fill="#07111F" opacity="0.74"/>
  <circle cx="642" cy="1270" r="402" stroke="#12324E" stroke-width="2" stroke-dasharray="10 18" opacity="0.55"/>

  <g transform="translate(232 758)">
    <circle cx="410" cy="512" r="356" fill="#07111F" stroke="url(#edgeGradient)" stroke-width="18"/>
    <circle cx="410" cy="512" r="292" stroke="#12324E" stroke-width="2" stroke-dasharray="10 18" opacity="0.7"/>

    <g filter="url(#softShadow)" transform="translate(-102 0)">
      <path d="M646 318C597 276 450 274 394 340C333 413 384 484 514 509C648 535 700 600 636 680C576 755 426 750 356 696" stroke="url(#markGradient)" stroke-width="78" stroke-linecap="round" stroke-linejoin="round"/>
      <path d="M330 292H704" stroke="url(#markGradient)" stroke-width="72" stroke-linecap="round"/>
      <path d="M512 292V744" stroke="url(#markGradient)" stroke-width="72" stroke-linecap="round"/>
      <path d="M330 292H704" stroke="#DFFBFF" stroke-width="18" stroke-linecap="round" opacity="0.72"/>
      <path d="M512 292V744" stroke="#DFFBFF" stroke-width="18" stroke-linecap="round" opacity="0.58"/>
    </g>

    <path d="M210 748L294 672L368 710L473 584L542 626L622 514" stroke="#8DEBFF" stroke-width="24" stroke-linecap="round" stroke-linejoin="round"/>
    <path d="M622 514L614 591L560 538" stroke="#8DEBFF" stroke-width="24" stroke-linecap="round" stroke-linejoin="round"/>
  </g>

</svg>
